<?xml version="1.0" encoding="utf-8"?>

<!DOCTYPE svg PUBLIC "-//W3C//DTD SVG 1.1//EN" "http://www.w3.org/Graphics/SVG/1.1/DTD/svg11.dtd">
<svg version="1.1" id="Layer_1" xmlns="http://www.w3.org/2000/svg" xmlns:xlink="http://www.w3.org/1999/xlink" x="0px" y="0px"
	 viewBox="0 0 1920 1875" enable-background="new 0 0 1920 1875" xml:space="preserve">
<g>
	<path fill="#0000FF" d="M298.28,86.73c3.51-0.9,7.15-0.62,10.73-0.62c358.99-0.01,717.98,0,1076.97,0
		c76.17,0.06,152.35-0.14,228.52,0.1c2.98,1.47,6.4301,0.35,9.62,0.81c3.78,0.62,7.7,0.53,11.36,1.77
		c9.01,0.65,17.5601,3.77,26.35,5.62c14.9401,5.18,29.88,10.93,43.2101,19.55c16.11,9.32,30.3999,21.45,43.09,34.99
		c2.0699,3.2,5.3199,5.38,7.45,8.54c4.88,6.8,10.39,13.2,14.49,20.53c2.4801,4.46,5.53,8.58,7.66,13.23
		c3.8201,8.32,8.02,16.47,10.65,25.28c1.49,3.73,2.85,7.54,3.65,11.49c1.51,6.95,3.99,13.73,4.47,20.88
		c0.3,3.14,1.23,6.18,1.61,9.32c1.58,20.18,0.77,40.48,0.96,60.74c0,417.01,0,834.02,0,1251.03c-0.1,4.35,0.2001,8.72-0.1399,13.08
		c-0.9701,5.41,0.0699,10.9801-1.2301,16.37c-0.72,1.9801-0.75,4.1101-1.13,6.1801c-0.4099,8.17-3.5199,15.86-4.97,23.85
		c-0.8199,1.9601-1.51,3.97-2.0599,6.04c-1.51,4.37-3.26,8.66-4.76,13.04c-1.87,5.0299-4.63,9.6499-6.89,14.5
		c-2.12,5.74-6.11,10.49-8.97,15.86c-21.42,34.0599-53.8301,60.85-91.0801,76.0299c-5.11,1.8601-10.22,3.6801-15.3199,5.55
		c-2.66,0.73-5.3301,1.4401-8.03,1.95c-1.35,0.3601-2.67,0.7401-3.97,1.17c-2.74,0.58-5.49,1.08-8.11,2.05
		c-6.54,0.48-12.9301,1.98-19.4301,2.72c-4.6699,0.0699-9.34-0.0601-13.96,0.66c-419.67,0.0499-839.34,0.01-1259,0.02
		c-15.05-0.0801-30.11,0.1399-45.15-0.1001c-6.74-1.1799-13.76,0.3501-20.36-1.75c-11.17-0.9099-21.94-4.0299-32.74-6.8199
		c-4.54-1.66-9.11-3.23-13.61-4.99c-6.89-2.02-12.97-5.97-19.47-8.9301c-36.75-19.4399-67.1-50.9099-84.61-88.65
		c-4.21-7.6899-6.7-16.13-9.77-24.2899c-0.72-2.3401-1.24-4.72-2.08-6.99c-0.29-1.38-0.56-2.73-0.78-4.0701
		c-0.36-1.33-0.72-2.65-1.2-3.9c-1.31-6.1-2.58-12.22-3.04-18.4399c-0.19-1.61-0.35-3.21-1.1-4.63c-0.01-4.52-0.15-9.01-0.72-13.48
		c0.01-436.36-0.01-872.72,0.01-1309.0801c1.05-4.77-0.12-9.8,1.3-14.45c0.96-7.69,1.75-15.5,4.06-22.91c0.55-2.34,1-4.71,1.56-7.04
		c0.49-1.32,0.83-2.68,1.14-4.05c1.74-6.54,4.63-12.75,6.76-19.18c3.36-6.44,5.84-13.32,9.55-19.58c4.01-5.75,6.96-12.19,11.3-17.72
		c3.19-4.14,6.24-8.39,9.47-12.51c4.05-3.94,7.4-8.51,11.6-12.31c3.96-4.38,8.73-7.88,12.82-12.12c6.2-4.52,12.11-9.46,18.61-13.56
		c6.77-3.83,13.08-8.46,20.27-11.52c4.99-1.93,9.55-4.8,14.69-6.38c4.56-1.96,9.38-3.25,13.95-5.22c2.72-0.49,5.44-1.1,8.07-1.98
		C272.9,89.36,285.53,86.95,298.28,86.73 M938.89,234.73c-21.84,0.32-43.56,2.9-65.23,5.61c-2.0099,0.76-4.17,0.75-6.25,1.1
		c-9.68,1.16-19.19,3.4-28.8,5c-12.75,2.89-25.59,5.47-38.1,9.29c-16.87,4.3-33.36,9.92-49.71,15.91
		c-16.31,6.99-33.01,13.14-48.72,21.47c-6.86,3.97-14.06,7.33-21.13,10.91c-26.52,15.28-52.02,32.61-74.69,53.25
		c-7.47,6.12-13.82,13.49-20.83,20.13c-4.43,5.22-9.19,10.14-13.51,15.46c-25.83,31.01-45.77,67.3-55.37,106.63
		c-0.4,1.37-0.77,2.74-1.18,4.11c-1.02,7.49-3.2,14.82-3.42,22.41c0.75,5.13,0.58,10.35,1.42,15.48c0.85,2.75,0.81,5.68,1.43,8.49
		c2.49,7.69,3.93,15.67,6.18,23.43c1.17,5.03,2.29,10.09,3.8,15.03c0.6,2.66,0.93,5.41,1.98,7.96c0.55,2.33,0.99,4.69,1.56,7.03
		c1,2.6,1.36,5.38,2.01,8.09c0.44,1.3,0.82,2.64,1.2,3.98c0.23,1.35,0.52,2.71,0.8,4.07c0.44,1.3,0.82,2.63,1.23,3.96
		c0.23,1.3199,0.5,2.65,0.78,3.99c1.46,4.53,2.22,9.25,3.61,13.81c1.87,7.71,3.67,15.47,5.84,23.1c0.6,2.66,0.94,5.42,1.97,7.97
		c0.56,2.33,1,4.68,1.57,7.02c0.98,2.61,1.39,5.38,2,8.09c0.44,1.31,0.82,2.65,1.2,3.99c0.4399,2.73,1.2,5.4,2.03,8.04
		c0.24,1.32,0.52,2.65,0.78,3.98c2.74,9.56,4.67,19.34,7.45,28.88c0.58,2.69,0.94,5.45,2,8.03c0.63,2.66,0.94,5.41,1.98,7.98
		c0.55,2.32,1.02,4.67,1.57,7.01c0.96,2.62,1.41,5.37,2.0099,8.09c0.4301,1.31,0.81,2.64,1.2,3.98c0.23,1.34,0.51,2.68,0.79,4.03
		c0.43,1.32,0.81,2.66,1.22,4.01c2.33,10.54,5.32,20.93,7.68,31.46c38.27-0.11,76.53-0.01,114.8-0.04
		c220.05,0.04,440.1-0.09,660.15,0.06c1.3101-3.79,2.25-7.68,3.02-11.6c3.4-12.21,6.05-24.66,9.4301-36.89
		c0.24-1.34,0.52-2.67,0.79-4c0.3899-1.33,0.7699-2.66,1.22-3.96c0.26-1.37,0.5399-2.73,0.8099-4.08
		c0.36-1.34,0.73-2.68,1.2101-3.97c0.2699-1.35,0.5699-2.69,0.7999-4.03c0.3301-1.39,0.7101-2.77,1.2101-4.1
		c0.9099-5.05,2.6599-9.9,3.5199-14.96c3.4401-12.21,6.05-24.68,9.4601-36.91c0.25-1.33,0.52-2.66,0.7799-3.98
		c0.38-1.34,0.76-2.67,1.2201-3.98c0.26-1.36,0.5399-2.72,0.8099-4.07c0.35-1.35,0.72-2.69,1.1901-3.98
		c0.64-2.72,1-5.52,2.0299-8.13c0.9-5.05,2.66-9.89,3.52-14.94c1.5-4.94,2.64-10.01,3.8101-15.05c2.08-7.23,3.53-14.64,5.65-21.87
		c0.24-1.33,0.5199-2.66,0.7799-3.99c0.37-1.33,0.75-2.66,1.2101-3.97c0.27-1.36,0.5499-2.72,0.8199-4.07
		c0.34-1.35,0.72-2.68,1.1901-3.98c0.62-2.73,1.01-5.51,2.0199-8.13c0.92-5.04,2.66-9.88,3.53-14.93
		c1.4401-3.61,1.5801-7.58,3.01-11.2c4.0601-5.92,2.8201-13.46,3.04-20.23c-0.49-10.27-3.3-20.24-4.76-30.37
		c-1.35-3.99-1.9301-8.18-3.23-12.16c-11.05-41.57-34.0701-79.25-62.6901-111.05c-6.7799-7.21-14-14.01-20.9099-21.11
		c-19.41-17.98-40.64-34.07-63.3-47.79c-11.25-7.41-23.52-13.04-35.28-19.57c-5.28-3.17-10.99-5.49-16.59-8
		c-12.34-5.14-24.38-11-37.03-15.33c-9.02-2.99-17.99-6.14-26.95-9.28c-2.05-0.61-4.13-1.14-6.0701-2.01
		c-35.7899-10.36-72.45-17.86-109.5-21.77c-9.35-0.48-18.58-2.3-27.97-2.15c-5.95-0.98-12.02,0.02-17.9-1.34
		c-12.01-0.1-24.02-0.01-36.03-0.04C947.66,234.13,943.2,233.62,938.89,234.73 M596.38,903.12c-9.97,19.54-18.09,39.95-25.98,60.39
		c-3.34,10.64-7.35,21.07-10.14,31.88c-0.17,0.52-0.52,1.58-0.69,2.1c-0.8,3.72-2.23,7.27-2.96,11.01
		c-1.63,3.84-2.01,8.05-3.16,12.05c-1.31,5.7-2.78,11.3701-4.12,17.07c-0.54,2.96-0.97,5.96-1.56,8.92
		c-1.6,3.83-0.84,8.2-2.53,12.01c-0.96,4.2699-0.71,8.76-2,12.97c-0.78,4.53-0.98,9.15-1.92,13.6699
		c-1.25,8.1001-1.35,16.3701-2.88,24.42c0.17,4.83-0.79,9.61-0.67,14.4501c0.11,3.0199-1.14,5.9199-0.78,8.98
		c0.37,4.0399-0.96,7.97-0.71,12.02c0.11,14.12-0.09,28.25,0.1,42.37c1.41,3.9399,0.03,8.21,0.87,12.2599
		c0.84,3.42,0.48,6.9701,0.47,10.4701l0.6801,1.0599c-0.5,7.13,1.21,14.14,1.88,21.2001c0.23,4.0599,0.27,8.23,1.41,12.1599
		c2.45,19.8501,6.13,39.53,10.85,58.9601c0.26,1.3099,0.55,2.63,0.82,3.97c1.87,6.3,3.02,12.83,5.27,19.03
		c3.75,14.5599,8.78,28.7899,13.83,42.95c0.96,2.6901,1.91,5.41,3.2,8c0.29,0.98,0.59,1.98,0.89,3
		c9.15,22.76,19.44,45.09,31.51,66.46c30.94,55.49,72.15,105.4401,122.1,144.8c7.81,5.6,15.11,11.9,23.34,16.92
		c8.47,6.48,17.93,11.4399,26.94,17.09c15.88,8.86,32.12,17.1799,49.08,23.79c5.04,1.85,9.92,4.1499,15.08,5.71
		c8.62,2.74,16.9901,6.27,25.88,8.14c8.85,2.64,17.86,4.75,26.96,6.36c9.2,2.17,18.62,3.37,28.02,4.45
		c2.72,1.2001,5.82,0.4501,8.7,1.05c4.96,0.1899,9.8701,1.05,14.85,0.8199c11.23,1.66,22.68,0.51,34.01,0.8401
		c5.24-1.2301,10.64-0.55,15.95-1.3c12.45-0.54,24.72-2.84,37.03-4.62c10.51-2.48,21.23-4.12,31.53-7.46
		c10.0699-2.39,19.8099-5.9501,29.61-9.23c9.46-3.9501,19.24-7.2101,28.36-11.9501c17.34-7.54,33.76-17.0699,49.79-27.08
		c28.2899-18.3201,54.61-39.75,77.84-64.12c7.58-7.12,14.13-15.16,21.01-22.92c26.4299-31.02,48.86-65.41,67.25-101.73
		c2.67-6.52,6.41-12.54,9.13-19.02c4.71-11.33,10.0499-22.4,14.04-34.02c3.09-7.52,5.3899-15.3199,8.1599-22.9399
		c0.9401-3.77,2.5601-7.3201,3.5601-11.0701c2.77-9.9399,5.99-19.7799,8.1699-29.88c4.03-14.7,6.5801-29.72,9.54-44.6599
		c0.73-3.79,0.55-7.78,1.78-11.4601c0.41-4.3199,1.27-8.58,1.52-12.9099c1.4399-6.1901,1.33-12.6801,2.0399-18.99
		c1.99-10.6801,1.1001-21.75,2.67-32.52c0-14.3201,0-28.65,0-42.9701c-0.04-4.09,0.3101-8.22-0.65-12.21
		c-0.5499-18.97-2.83-37.83-5.23-56.65c-1.28-4.96-1.4-10.09-2.3099-15.09c-2.38-11.88-4.25-23.89-7.41-35.59
		c-0.25-1.3401-0.55-2.67-0.8-3.98c-1.5399-5.31-2.47-10.78-4.09-16.07c-1.36-3.57-1.95-7.36-3.23-10.93
		c-4.0901-14.95-9.2001-29.62-14.87-44.04c-4.15-11.47-9.2001-22.59-14.2001-33.7c-2.76-4.75-4.22-10.14-7.25-14.73
		c-23.6599,0.19-47.3199,0.02-70.98,0.08C1046.11,903.13,821.25,903.22,596.38,903.12z"/>
	<path fill="#FFFFFF" d="M938.89,234.73c4.31-1.11,8.77-0.6,13.17-0.69c12.01,0.03,24.02-0.06,36.03,0.04
		c5.8799,1.36,11.95,0.36,17.9,1.34c9.39-0.15,18.62,1.67,27.97,2.15c37.05,3.91,73.7101,11.41,109.5,21.77
		c1.9401,0.87,4.02,1.4,6.0701,2.01c8.96,3.14,17.9299,6.29,26.95,9.28c12.65,4.33,24.6901,10.19,37.03,15.33
		c5.6,2.51,11.3099,4.83,16.59,8c11.76,6.53,24.03,12.16,35.28,19.57c22.66,13.72,43.89,29.81,63.3,47.79
		c6.9099,7.1,14.13,13.9,20.9099,21.11c28.62,31.8,51.64,69.48,62.6901,111.05c1.2999,3.98,1.88,8.17,3.23,12.16
		c1.46,10.13,4.27,20.1,4.76,30.37c-0.22,6.77,1.02,14.31-3.04,20.23c-1.4299,3.62-1.5699,7.59-3.01,11.2
		c-0.87,5.05-2.61,9.89-3.53,14.93c-1.0099,2.62-1.3999,5.4-2.0199,8.13c-0.4701,1.3-0.8501,2.63-1.1901,3.98
		c-0.27,1.35-0.5499,2.71-0.8199,4.07c-0.4601,1.31-0.8401,2.64-1.2101,3.97c-0.26,1.33-0.5399,2.66-0.7799,3.99
		c-2.12,7.23-3.5701,14.64-5.65,21.87c-1.17,5.04-2.3101,10.11-3.8101,15.05c-0.86,5.05-2.62,9.89-3.52,14.94
		c-1.0299,2.61-1.3899,5.41-2.0299,8.13c-0.4701,1.29-0.8401,2.63-1.1901,3.98c-0.27,1.35-0.5499,2.71-0.8099,4.07
		c-0.4601,1.31-0.8401,2.64-1.2201,3.98c-0.2599,1.3199-0.5299,2.65-0.7799,3.98c-3.41,12.23-6.02,24.7-9.4601,36.91
		c-0.86,5.06-2.61,9.91-3.5199,14.96c-0.5,1.33-0.88,2.71-1.2101,4.1c-0.23,1.34-0.53,2.68-0.7999,4.03
		c-0.4801,1.29-0.8501,2.63-1.2101,3.97c-0.27,1.35-0.5499,2.71-0.8099,4.08c-0.4501,1.3-0.8301,2.63-1.22,3.96
		c-0.27,1.33-0.55,2.66-0.79,4c-3.38,12.23-6.03,24.68-9.4301,36.89c-0.77,3.92-1.71,7.81-3.02,11.6
		c-220.0499-0.15-440.0999-0.02-660.15-0.06c-38.27,0.03-76.53-0.07-114.8,0.04c-2.36-10.53-5.35-20.92-7.68-31.46
		c-0.41-1.35-0.79-2.69-1.22-4.01c-0.28-1.35-0.56-2.69-0.79-4.03c-0.39-1.34-0.77-2.67-1.2-3.98c-0.6-2.72-1.05-5.47-2.0099-8.09
		c-0.55-2.34-1.02-4.69-1.57-7.01c-1.04-2.5699-1.35-5.3199-1.98-7.98c-1.06-2.58-1.42-5.34-2-8.03
		c-2.78-9.54-4.71-19.32-7.45-28.88c-0.26-1.33-0.54-2.66-0.78-3.98c-0.83-2.64-1.59-5.31-2.03-8.04c-0.38-1.34-0.76-2.68-1.2-3.99
		c-0.61-2.71-1.02-5.48-2-8.09c-0.57-2.34-1.01-4.69-1.57-7.02c-1.03-2.55-1.37-5.31-1.97-7.97c-2.17-7.63-3.97-15.39-5.84-23.1
		c-1.39-4.56-2.15-9.28-3.61-13.81c-0.28-1.34-0.55-2.67-0.78-3.99c-0.41-1.33-0.79-2.66-1.23-3.96c-0.28-1.36-0.57-2.72-0.8-4.07
		c-0.38-1.34-0.76-2.68-1.2-3.98c-0.65-2.71-1.01-5.49-2.01-8.09c-0.57-2.34-1.01-4.7-1.56-7.03c-1.05-2.55-1.38-5.3-1.98-7.96
		c-1.51-4.94-2.63-10-3.8-15.03c-2.25-7.7599-3.69-15.74-6.18-23.43c-0.62-2.81-0.58-5.74-1.43-8.49
		c-0.84-5.13-0.67-10.35-1.42-15.48c0.22-7.59,2.4-14.92,3.42-22.41c0.41-1.37,0.78-2.74,1.18-4.11
		c9.6-39.33,29.54-75.62,55.37-106.63c4.32-5.32,9.08-10.24,13.51-15.46c7.01-6.64,13.36-14.01,20.83-20.13
		c22.67-20.64,48.17-37.97,74.69-53.25c7.07-3.58,14.27-6.94,21.13-10.91c15.71-8.33,32.41-14.48,48.72-21.47
		c16.35-5.99,32.84-11.61,49.71-15.91c12.51-3.82,25.35-6.4,38.1-9.29c9.61-1.6,19.12-3.84,28.8-5c2.08-0.35,4.2401-0.34,6.25-1.1
		C895.33,237.63,917.05,235.05,938.89,234.73 M916.56,390.1c0.02,31.95-0.02,63.91,0.02,95.86c-31.91-0.01-63.81,0.03-95.71-0.02
		c0.05,37.74,0.05,75.48,0,113.22c31.9-0.05,63.81-0.02,95.72-0.02c-0.06,31.95,0,63.9-0.03,95.85c37.81-0.03,75.62,0,113.43-0.02
		c0.02-31.96,0.02-63.92,0-95.8799c31.9301,0.1,63.86,0.02,95.79,0.05c-0.14-37.73-0.0901-75.46-0.02-113.19
		c-31.9301,0.05-63.85-0.02-95.78,0.04c0.03-31.96,0.02-63.91,0.01-95.86C992.18,390.11,954.37,390.16,916.56,390.1z"/>
	<path fill="#0000FF" d="M916.56,390.1c37.81,0.06,75.62,0.01,113.43,0.03c0.01,31.95,0.02,63.9-0.01,95.86
		c31.9301-0.06,63.85,0.01,95.78-0.04c-0.0701,37.73-0.12,75.46,0.02,113.19c-31.9301-0.03-63.86,0.05-95.79-0.05
		c0.02,31.96,0.02,63.92,0,95.8799c-37.81,0.02-75.62-0.0099-113.43,0.02c0.03-31.95-0.03-63.9,0.03-95.85
		c-31.91,0-63.82-0.03-95.72,0.02c0.05-37.74,0.05-75.48,0-113.22c31.9,0.05,63.8,0.01,95.71,0.02
		C916.54,454.01,916.58,422.05,916.56,390.1z"/>
	<path fill="#FFFFFF" d="M596.38,903.12c224.87,0.1,449.73,0.01,674.6,0.04c23.66-0.06,47.3201,0.11,70.98-0.08
		c3.03,4.59,4.49,9.98,7.25,14.73c5,11.11,10.05,22.23,14.2001,33.7c5.6699,14.42,10.7799,29.09,14.87,44.04
		c1.28,3.57,1.87,7.36,3.23,10.93c1.62,5.29,2.55,10.76,4.09,16.07c0.25,1.31,0.55,2.64,0.8,3.98c3.16,11.7,5.03,23.71,7.41,35.59
		c0.9099,5,1.0299,10.13,2.3099,15.09c2.4,18.8201,4.6801,37.6801,5.23,56.65c0.9601,3.99,0.61,8.12,0.65,12.21
		c0,14.3201,0,28.65,0,42.9701c-1.5699,10.77-0.6801,21.84-2.67,32.52c-0.71,6.3099-0.6,12.7999-2.0399,18.99
		c-0.25,4.33-1.11,8.59-1.52,12.9099c-1.23,3.6801-1.05,7.67-1.78,11.4601c-2.96,14.9399-5.51,29.96-9.54,44.6599
		c-2.1799,10.1001-5.3999,19.9401-8.1699,29.88c-1,3.75-2.62,7.3-3.5601,11.0701c-2.77,7.62-5.0699,15.4199-8.1599,22.9399
		c-3.9901,11.62-9.3301,22.6901-14.04,34.02c-2.72,6.48-6.46,12.5-9.13,19.02c-18.39,36.3199-40.8201,70.71-67.25,101.73
		c-6.88,7.76-13.4301,15.8-21.01,22.92c-23.23,24.37-49.55,45.7999-77.84,64.12c-16.03,10.01-32.4501,19.5399-49.79,27.08
		c-9.12,4.74-18.9,8-28.36,11.9501c-9.8,3.2799-19.54,6.84-29.61,9.23c-10.3,3.34-21.02,4.98-31.53,7.46
		c-12.31,1.78-24.58,4.08-37.03,4.62c-5.31,0.75-10.71,0.0699-15.95,1.3c-11.33-0.3301-22.78,0.8199-34.01-0.8401
		c-4.98,0.2301-9.89-0.63-14.85-0.8199c-2.8799-0.6-5.98,0.15-8.7-1.05c-9.4-1.08-18.82-2.2799-28.02-4.45
		c-9.1-1.61-18.11-3.72-26.96-6.36c-8.89-1.87-17.26-5.4-25.88-8.14c-5.16-1.5601-10.04-3.86-15.08-5.71
		c-16.96-6.6101-33.2-14.9301-49.08-23.79c-9.01-5.65-18.47-10.61-26.94-17.09c-8.23-5.02-15.53-11.3201-23.34-16.92
		c-49.95-39.36-91.16-89.3101-122.1-144.8c-12.07-21.37-22.36-43.7-31.51-66.46c-0.3-1.02-0.6-2.02-0.89-3
		c-1.29-2.59-2.24-5.3099-3.2-8c-5.05-14.16-10.08-28.39-13.83-42.95c-2.25-6.2001-3.4-12.73-5.27-19.03
		c-0.27-1.34-0.56-2.66-0.82-3.97c-4.72-19.4301-8.4-39.11-10.85-58.9601c-1.14-3.9299-1.18-8.1-1.41-12.1599
		c-0.67-7.0601-2.38-14.0701-1.88-21.2001l-0.6801-1.0599c0.01-3.5,0.3701-7.05-0.47-10.4701c-0.84-4.0499,0.54-8.3199-0.87-12.2599
		c-0.19-14.12,0.01-28.25-0.1-42.37c-0.25-4.05,1.08-7.9801,0.71-12.02c-0.36-3.0601,0.89-5.9601,0.78-8.98
		c-0.12-4.8401,0.84-9.6201,0.67-14.4501c1.53-8.0499,1.63-16.3199,2.88-24.42c0.94-4.5199,1.14-9.1399,1.92-13.6699
		c1.29-4.21,1.04-8.7001,2-12.97c1.69-3.8101,0.93-8.1801,2.53-12.01c0.59-2.9601,1.02-5.9601,1.56-8.92
		c1.34-5.7,2.81-11.37,4.12-17.07c1.15-4,1.53-8.21,3.16-12.05c0.73-3.74,2.16-7.29,2.96-11.01c0.17-0.52,0.52-1.58,0.69-2.1
		c2.79-10.81,6.8-21.24,10.14-31.88C578.29,943.07,586.41,922.66,596.38,903.12z"/>
</g>
</svg>
